<svg width="73" height="74" viewBox="0 0 73 74" fill="none" xmlns="http://www.w3.org/2000/svg">
<path d="M12.1665 12.6667H20.0249C20.6332 12.6667 20.9374 12.6667 21.1574 12.8385C21.3774 13.0103 21.4512 13.3053 21.5987 13.8955L23.7188 22.3758C24.0138 23.5561 24.1614 24.1462 24.6014 24.4898C25.0415 24.8334 25.6498 24.8334 26.8664 24.8334H30.4165" stroke="#717171" stroke-opacity="0.75" stroke-width="3.24444" stroke-linecap="round"/>
<path d="M54.75 52.2083H20.5007C19.4737 52.2083 18.9601 52.2083 18.7173 51.8715C18.4746 51.5346 18.637 51.0474 18.9617 50.0731L20.5522 45.3018C20.9091 44.2311 21.0875 43.6957 21.5124 43.3895C21.9372 43.0833 22.5015 43.0833 23.6301 43.0833H42.5833" stroke="#717171" stroke-opacity="0.75" stroke-width="3.24444" stroke-linecap="round" stroke-linejoin="round"/>
<path d="M50.7056 43.0833H25.7074C24.9144 43.0833 24.2376 42.51 24.1072 41.7278L21.5276 26.25C21.404 25.5084 21.9759 24.8333 22.7277 24.8333H59.5208C60.1237 24.8333 60.5159 25.4679 60.2462 26.0072L52.1565 42.1866C51.8818 42.7362 51.32 43.0833 50.7056 43.0833Z" stroke="#717171" stroke-opacity="0.75" stroke-width="3.24444" stroke-linecap="round"/>
<circle cx="51.7082" cy="61.3334" r="3.04167" fill="#717171" fill-opacity="0.75"/>
<circle cx="27.3752" cy="61.3334" r="3.04167" fill="#717171" fill-opacity="0.75"/>
</svg>
